<svg width="90" height="90" viewBox="0 0 90 90" fill="none" xmlns="http://www.w3.org/2000/svg">
<circle cx="45" cy="45" r="45" fill="url(#paint0_linear_378_198)"/>
<path d="M27.0033 56.0548C27.3296 55.7263 27.7681 55.5416 28.2269 55.5416H70.6956C71.4705 55.5416 71.858 56.4859 71.3074 57.0299L62.9156 65.4775C62.5893 65.8059 62.1509 65.9907 61.692 65.9907H19.2336C18.4586 65.9907 18.0712 65.0464 18.6218 64.5024L27.0033 56.0548Z" fill="white"/>
<path d="M27.0033 24.5226C27.3296 24.1941 27.7681 24.0093 28.2269 24.0093H70.6956C71.4705 24.0093 71.858 24.9537 71.3074 25.4977L62.9156 33.935C62.5893 34.2635 62.1509 34.4482 61.692 34.4482H19.2336C18.4586 34.4482 18.0712 33.5039 18.6218 32.9599L27.0033 24.5226Z" fill="white"/>
<path d="M62.9156 40.186C62.5893 39.8575 62.1509 39.6728 61.692 39.6728H19.2336C18.4586 39.6728 18.0712 40.6171 18.6218 41.1611L27.0135 49.5984C27.3398 49.9269 27.7783 50.1117 28.2371 50.1117H70.7058C71.4807 50.1117 71.8682 49.1673 71.3176 48.6233L62.9156 40.186Z" fill="white"/>
<defs>
<linearGradient id="paint0_linear_378_198" x1="11.5" y1="90" x2="84" y2="12.5" gradientUnits="userSpaceOnUse">
<stop stop-color="#D12AFA"/>
<stop offset="1" stop-color="#64D06F"/>
</linearGradient>
</defs>
</svg>
